<svg width="32" height="32" viewBox="0 0 32 32" fill="none" xmlns="http://www.w3.org/2000/svg">
<path d="M27.3333 2.66667H4.66667C4.13624 2.66667 3.62753 2.87738 3.25246 3.25245C2.87739 3.62753 2.66667 4.13623 2.66667 4.66667V27.3333C2.66667 27.8638 2.87739 28.3725 3.25246 28.7475C3.62753 29.1226 4.13624 29.3333 4.66667 29.3333H27.3333C27.8638 29.3333 28.3725 29.1226 28.7475 28.7475C29.1226 28.3725 29.3333 27.8638 29.3333 27.3333V4.66667C29.3333 4.13623 29.1226 3.62753 28.7475 3.25245C28.3725 2.87738 27.8638 2.66667 27.3333 2.66667ZM10.6667 25.3333H6.66667V13.3333H10.6667V25.3333ZM8.66667 11C8.20825 10.9869 7.76385 10.839 7.38901 10.5748C7.01416 10.3105 6.72549 9.94171 6.55907 9.51437C6.39264 9.08702 6.35584 8.6201 6.45326 8.17196C6.55068 7.72382 6.778 7.31432 7.10682 6.99463C7.43564 6.67494 7.85138 6.45924 8.30209 6.37448C8.7528 6.28972 9.21849 6.33966 9.64099 6.51806C10.0635 6.69645 10.424 6.99539 10.6776 7.37753C10.9312 7.75967 11.0665 8.20806 11.0667 8.66667C11.0561 9.2938 10.7978 9.89127 10.3481 10.3285C9.89836 10.7657 9.29385 11.0071 8.66667 11ZM25.3333 25.3333H21.3333V19.0133C21.3333 17.12 20.5333 16.44 19.4933 16.44C19.1884 16.4603 18.8905 16.5406 18.6167 16.6764C18.343 16.8122 18.0987 17.0007 17.898 17.2311C17.6973 17.4616 17.5441 17.7294 17.4472 18.0192C17.3503 18.3091 17.3116 18.6152 17.3333 18.92C17.3267 18.982 17.3267 19.0446 17.3333 19.1067V25.3333H13.3333V13.3333H17.2V15.0667C17.59 14.4733 18.1259 13.9901 18.7563 13.6632C19.3866 13.3364 20.0903 13.1769 20.8 13.2C22.8667 13.2 25.28 14.3467 25.28 18.08L25.3333 25.3333Z" fill="#007DF0"/>
</svg>
